<svg xmlns="http://www.w3.org/2000/svg" viewBox="0 0 700 440" role="img" aria-label="Cybersecurity Monitor">
<defs>
<linearGradient id="bg3" x1="0" y1="0" x2="1" y2="1"><stop offset="0" stop-color="#0A0710"/><stop offset="1" stop-color="#161226"/></linearGradient>
<linearGradient id="gold3" x1="0" y1="0" x2="1" y2="1"><stop offset="0" stop-color="#F5D76E"/><stop offset="1" stop-color="#A8881A"/></linearGradient>
<linearGradient id="glass3" x1="0" y1="0" x2="0" y2="1"><stop offset="0" stop-color="#fff" stop-opacity=".13"/><stop offset="1" stop-color="#fff" stop-opacity=".03"/></linearGradient>
<radialGradient id="orb3" cx=".5" cy=".5" r=".5"><stop offset="0" stop-color="#FF4757" stop-opacity=".25"/><stop offset="1" stop-color="#FF4757" stop-opacity="0"/></radialGradient>
</defs>
<rect width="700" height="440" fill="url(#bg3)"/>
<circle cx="350" cy="200" r="180" fill="url(#orb3)"/>
<g opacity=".07" stroke="#D4AF37"><path d="M0 110h700M0 330h700M140 0v440M560 0v440"/></g>
<rect x="150" y="70" width="400" height="300" rx="24" fill="url(#glass3)" stroke="#fff" stroke-opacity=".16"/>
<path d="M350 105 470 150v95c0 70-55 105-120 125-65-20-120-55-120-125v-95z" fill="#000" fill-opacity=".5" stroke="url(#gold3)" stroke-width="2"/>
<path d="M350 130 445 165v80c0 55-42 85-95 102-53-17-95-47-95-102v-80z" fill="none" stroke="#fff" stroke-opacity=".2"/>
<rect x="320" y="215" width="60" height="48" rx="10" fill="none" stroke="#00D4FF" stroke-width="3"/><path d="M335 215v-12a15 15 0 0 1 30 0v12" fill="none" stroke="#00D4FF" stroke-width="3"/><circle cx="350" cy="238" r="5" fill="#F5D76E"/>
<g font-family="monospace" font-size="12"><text x="185" y="315" fill="#22C55E">● FIREWALL ACTIVE</text><text x="380" y="315" fill="#FF4757">▲ 3 THREATS BLOCKED</text></g>
<rect x="185" y="325" width="330" height="8" rx="4" fill="#fff" fill-opacity=".1"/><rect x="185" y="325" width="240" height="8" rx="4" fill="url(#gold3)"/>
</svg>
