<svg xmlns="http://www.w3.org/2000/svg" viewBox="0 0 400 250">
  <rect width="400" height="250" fill="#1a1a2e"/>
  <rect x="60" y="40" width="280" height="170" rx="8" fill="#16213e" stroke="#d4af37" stroke-width="1.5"/>
  <rect x="95" y="55" width="210" height="20" rx="3" fill="#0f0f23" stroke="#555" stroke-width="0.8"/>
  <circle cx="108" cy="65" r="4" fill="#d4af37" opacity="0.5"/>
  <circle cx="120" cy="65" r="4" fill="#d4af37" opacity="0.3"/>
  <circle cx="132" cy="65" r="4" fill="#d4af37" opacity="0.2"/>
  <text x="220" y="69" text-anchor="middle" fill="#888" font-family="monospace" font-size="9">ESC POS - Windows</text>
  <rect x="95" y="90" width="210" height="100" rx="3" fill="#0f0f23" stroke="#333" stroke-width="1"/>
  <rect x="110" y="105" width="80" height="25" rx="2" fill="#d4af37" opacity="0.12"/>
  <text x="150" y="121" text-anchor="middle" fill="#d4af37" font-family="monospace" font-size="8">New Sale</text>
  <rect x="200" y="105" width="80" height="25" rx="2" fill="#d4af37" opacity="0.08"/>
  <text x="240" y="121" text-anchor="middle" fill="#d4af37" font-family="monospace" font-size="8">Inventory</text>
  <rect x="110" y="145" width="170" height="4" rx="2" fill="#555"/>
  <rect x="110" y="155" width="120" height="4" rx="2" fill="#555"/>
  <rect x="110" y="165" width="150" height="4" rx="2" fill="#555"/>
  <rect x="150" y="175" width="100" height="4" rx="2" fill="#d4af37" opacity="0.4"/>
  <text x="200" y="225" text-anchor="middle" fill="#d4af37" font-family="monospace" font-size="12" font-weight="bold">ESC POS Windows Base</text>
  <text x="200" y="240" text-anchor="middle" fill="#666" font-family="monospace" font-size="10">Desktop POS in C#</text>
</svg>