<svg xmlns="http://www.w3.org/2000/svg" viewBox="0 0 400 250">
  <rect width="400" height="250" fill="#1a1a2e"/>
  <rect x="60" y="40" width="280" height="170" rx="8" fill="#16213e" stroke="#d4af37" stroke-width="1.5"/>
  <rect x="90" y="65" width="220" height="30" rx="4" fill="#0f0f23" stroke="#d4af37" stroke-width="0.8"/>
  <text x="200" y="85" text-anchor="middle" fill="#d4af37" font-family="monospace" font-size="11">Scheme of Work Generator</text>
  <rect x="90" y="105" width="50" height="20" rx="3" fill="#d4af37" opacity="0.15"/>
  <text x="115" y="118" text-anchor="middle" fill="#d4af37" font-family="monospace" font-size="9">Week 1</text>
  <rect x="150" y="105" width="50" height="20" rx="3" fill="#d4af37" opacity="0.15"/>
  <text x="175" y="118" text-anchor="middle" fill="#d4af37" font-family="monospace" font-size="9">Week 2</text>
  <rect x="210" y="105" width="50" height="20" rx="3" fill="#d4af37" opacity="0.15"/>
  <text x="235" y="118" text-anchor="middle" fill="#d4af37" font-family="monospace" font-size="9">Week 3</text>
  <rect x="270" y="105" width="40" height="20" rx="3" fill="#d4af37" opacity="0.08"/>
  <rect x="90" y="140" width="220" height="4" rx="2" fill="#333"/>
  <rect x="90" y="155" width="140" height="4" rx="2" fill="#555"/>
  <rect x="90" y="165" width="180" height="4" rx="2" fill="#555"/>
  <rect x="90" y="175" width="120" height="4" rx="2" fill="#555"/>
  <text x="200" y="225" text-anchor="middle" fill="#d4af37" font-family="monospace" font-size="13" font-weight="bold">Scheme of Work</text>
  <text x="200" y="240" text-anchor="middle" fill="#666" font-family="monospace" font-size="10">Educational Planning Tool</text>
</svg>